<svg xmlns="http://www.w3.org/2000/svg" width="220.846" height="84.941" viewBox="0 0 220.846 84.941">
  <g id="Logo" transform="translate(552.182 -27.944)">
    <path id="Pfad_760" data-name="Pfad 760" d="M-334.6,155.4c0,1.547.5,2.593,2.223,2.593a6.675,6.675,0,0,0,2.549-.654.361.361,0,0,0,.2-.523l-.392-.959a.327.327,0,0,0-.5-.2,3.542,3.542,0,0,1-1.328.392c-.414,0-.7-.131-.7-.871v-4.314h2.221a.414.414,0,0,0,.414-.414v-.98a.4.4,0,0,0-.414-.414h-2.221v-2.44a.41.41,0,0,0-.393-.414l-1.241.022a.428.428,0,0,0-.415.414v2.418h-.914a.4.4,0,0,0-.415.414v.98a.414.414,0,0,0,.415.414h.914Zm-13.422,1.961a.428.428,0,0,0,.414.414h1.133c.37,0,.5-.131.5-.414v-5.316a2.882,2.882,0,0,1,2.418-1.307c1.133,0,1.808.763,1.808,2.157v4.466a.414.414,0,0,0,.415.414h1.242a.429.429,0,0,0,.414-.414v-4.379c0-2.266-.98-4.139-3.638-4.139a4.459,4.459,0,0,0-3.05,1.22l-.261-.74a.354.354,0,0,0-.349-.262h-.632a.428.428,0,0,0-.414.414Zm-9.958-2.309c0-.893.718-1.438,1.764-1.438a3.283,3.283,0,0,1,1.526.349v1.394a2.577,2.577,0,0,1-1.96,1.09,1.31,1.31,0,0,1-1.329-1.395m-1.9.022A2.706,2.706,0,0,0-357.07,158a3.758,3.758,0,0,0,2.679-1.111l.218.589c.087.218.174.3.371.3h.61a.429.429,0,0,0,.414-.414v-4.641c0-2.178-.261-3.878-3.05-3.878a9,9,0,0,0-3.007.5.392.392,0,0,0-.284.5l.175.806c.066.24.218.414.479.349a9.276,9.276,0,0,1,2.44-.392c1.111,0,1.373.544,1.351,1.917a6.275,6.275,0,0,0-1.721-.261c-2.223,0-3.486,1.22-3.486,2.81m-7.743,2.7a.386.386,0,0,0,.37.218h.108a.388.388,0,0,0,.372-.218l3.855-8.214c.131-.283,0-.5-.326-.5h-1c-.24,0-.479,0-.588.24l-2.354,5.141h-.021l-2.265-5.141a.4.4,0,0,0-.393-.24h-1.285c-.327,0-.458.218-.327.5Zm-12.982-5.316a2.2,2.2,0,0,1,2.222-1.939,2.062,2.062,0,0,1,2,1.939Zm-2.114.959A4.359,4.359,0,0,0-378.34,158a5,5,0,0,0,3.224-1.09.338.338,0,0,0,.044-.566l-.61-.828c-.174-.218-.327-.131-.588.022a3.719,3.719,0,0,1-1.939.632,2.522,2.522,0,0,1-2.505-2.331h5.926a.4.4,0,0,0,.391-.37,5.205,5.205,0,0,0,.044-.588,3.923,3.923,0,0,0-4.008-4.031,4.379,4.379,0,0,0-4.358,4.575m-6.3,3.943a.429.429,0,0,0,.413.414h1.242a.429.429,0,0,0,.415-.414V142.942a.429.429,0,0,0-.415-.414h-1.242a.429.429,0,0,0-.413.414Zm-10.446-4.9a2.2,2.2,0,0,1,2.222-1.939,2.061,2.061,0,0,1,2,1.939Zm-2.113.959A4.358,4.358,0,0,0-397.2,158a5,5,0,0,0,3.224-1.09.338.338,0,0,0,.044-.566l-.61-.828c-.174-.218-.327-.131-.588.022a3.72,3.72,0,0,1-1.939.632,2.523,2.523,0,0,1-2.506-2.331h5.926a.4.4,0,0,0,.392-.37,5.32,5.32,0,0,0,.044-.588,3.923,3.923,0,0,0-4.009-4.031,4.379,4.379,0,0,0-4.357,4.575m-8.558,3.943a.429.429,0,0,0,.414.414h1.046c.348,0,.588-.044.588-.414v-5.534a2.3,2.3,0,0,1,1.961-1.068,1.992,1.992,0,0,1,.741.153.371.371,0,0,0,.523-.2l.523-1.068c.24-.588-.762-.806-1.59-.806a3.105,3.105,0,0,0-2.549,1.264l-.239-.741a.415.415,0,0,0-.37-.3h-.632a.429.429,0,0,0-.414.414Z" transform="translate(-55.922 -45.112)" fill="#f9b233"/>
    <path id="Pfad_761" data-name="Pfad 761" d="M-448.277,152.463a2.2,2.2,0,0,1,2.222-1.939,2.061,2.061,0,0,1,2,1.939Zm-2.113.959A4.358,4.358,0,0,0-446.011,158a5,5,0,0,0,3.224-1.09.338.338,0,0,0,.044-.566l-.61-.828c-.174-.218-.327-.131-.588.022a3.717,3.717,0,0,1-1.939.632,2.523,2.523,0,0,1-2.506-2.331h5.926a.4.4,0,0,0,.392-.37,5.35,5.35,0,0,0,.044-.588,3.923,3.923,0,0,0-4.009-4.031,4.378,4.378,0,0,0-4.357,4.575m-10.113,1.394v-3.573a3.721,3.721,0,0,1,1.9-.5,2.531,2.531,0,0,1,2.483,2.68,2.47,2.47,0,0,1-2.309,2.7,2.343,2.343,0,0,1-2.069-1.307m-2.07,2.549a.429.429,0,0,0,.414.414h.654c.2,0,.327-.153.392-.37l.174-.632a3.9,3.9,0,0,0,2.767,1.22,4.321,4.321,0,0,0,4.074-4.575,4.4,4.4,0,0,0-4.292-4.575,5.241,5.241,0,0,0-2.091.48v-6.384a.429.429,0,0,0-.414-.414h-1.264a.429.429,0,0,0-.414.414Z" transform="translate(-35.279 -45.112)" fill="#fff"/>
    <path id="Pfad_762" data-name="Pfad 762" d="M-356.879,70.145a.468.468,0,0,0,.452.451h2.828a.451.451,0,0,0,.452-.451V63.894h6.8v6.251a.451.451,0,0,0,.451.451h2.829a.467.467,0,0,0,.451-.451V54.411a.467.467,0,0,0-.451-.452H-345.9a.451.451,0,0,0-.451.452V60.4h-6.8V54.411a.452.452,0,0,0-.452-.452h-2.828a.468.468,0,0,0-.452.452ZM-378.435,62.3a8.52,8.52,0,0,0,8.579,8.532,8.156,8.156,0,0,0,5.776-2.305.476.476,0,0,0,.024-.642l-1.853-1.972a.471.471,0,0,0-.618-.024,5.027,5.027,0,0,1-3.185,1.14,4.708,4.708,0,0,1-4.682-4.824,4.736,4.736,0,0,1,4.659-4.9,4.854,4.854,0,0,1,3.209,1.212.416.416,0,0,0,.594,0l1.854-1.925a.441.441,0,0,0-.024-.666,7.982,7.982,0,0,0-5.752-2.211,8.561,8.561,0,0,0-8.579,8.58m-12.955,7.844a.468.468,0,0,0,.452.451h2.852a.467.467,0,0,0,.451-.451V57.454h3.4a.451.451,0,0,0,.451-.452V54.411a.451.451,0,0,0-.451-.452h-10.553a.451.451,0,0,0-.452.452V57a.451.451,0,0,0,.452.452h3.4Zm-17.29-5.253,1.782-3.922h.024l1.807,3.922Zm-5.752,5.7h2.614a.886.886,0,0,0,.857-.57l.856-1.9h6.464l.855,1.877c.215.452.4.594.832.594h2.639a.42.42,0,0,0,.4-.618l-7.439-15.995a.482.482,0,0,0-.4-.262h-.238a.482.482,0,0,0-.4.262l-7.439,15.995a.42.42,0,0,0,.4.618m-20.07-.1a.456.456,0,0,0,.427.333h.38a.483.483,0,0,0,.4-.261l4.325-9.721h.072l4.349,9.721a.482.482,0,0,0,.4.261h.381a.458.458,0,0,0,.428-.333l4.492-15.971a.415.415,0,0,0-.428-.571h-2.782a.491.491,0,0,0-.428.333l-2.043,8.057h-.1l-3.684-8.366a.4.4,0,0,0-.4-.262h-.427a.453.453,0,0,0-.4.262l-3.684,8.366h-.1l-2.044-8.057a.489.489,0,0,0-.427-.333h-2.781a.414.414,0,0,0-.427.571Zm-21.428-4.016c0-1.878,1.569-3.09,2.662-3.755l4.4,4.611a5.23,5.23,0,0,1-4.064,2.02,2.884,2.884,0,0,1-3-2.876m3.042-5.633-.523-.523c-.9-.88-1.569-1.687-1.521-2.71a2.362,2.362,0,0,1,2.472-2.5,2.34,2.34,0,0,1,2.5,2.305c0,1.712-1.854,2.781-2.924,3.423m-4.706,5.609a4.261,4.261,0,0,0,4.587,4.373,6.776,6.776,0,0,0,5.181-2.377l2.021,2.092a.642.642,0,0,0,1,.072l.285-.262c.5-.546.309-.784.024-1.093l-2.282-2.282a11.279,11.279,0,0,0,1.4-5.348c0-.19.047-.547-.452-.547h-.57c-.357,0-.547.024-.547.547a9.615,9.615,0,0,1-.951,4.231l-3.922-3.922c1.379-.856,3.518-2.448,3.518-4.564a3.674,3.674,0,0,0-4.017-3.66,3.893,3.893,0,0,0-4.207,3.851,4.8,4.8,0,0,0,1.664,3.47l.571.618v.047c-1.283.761-3.3,2.187-3.3,4.754m-13.659,3.684a.468.468,0,0,0,.452.451h2.852a.468.468,0,0,0,.452-.451V57.454h3.4a.451.451,0,0,0,.452-.452V54.411a.451.451,0,0,0-.452-.452h-10.552a.451.451,0,0,0-.452.452V57a.451.451,0,0,0,.452.452h3.4Zm-14.241,0a.468.468,0,0,0,.452.451h2.852a.468.468,0,0,0,.452-.451V54.411a.468.468,0,0,0-.452-.452h-2.852a.468.468,0,0,0-.452.452ZM-503.9,69a7.546,7.546,0,0,0,5.348,1.83c3.493,0,5.609-2.471,5.609-4.919,0-3.232-2.947-4.682-4.8-5.419-1.878-.76-2.591-1.426-2.591-2.305a1.378,1.378,0,0,1,1.5-1.212,7.444,7.444,0,0,1,3.4,1.426c.214.166.642-.048.808-.309l1.212-1.83a.6.6,0,0,0-.143-.761,8.84,8.84,0,0,0-5.086-1.783c-3.66,0-5.49,2.377-5.49,4.73,0,2.852,2.567,4.444,4.611,5.252,1.616.642,2.448,1.4,2.448,2.4a1.489,1.489,0,0,1-1.639,1.427,7.1,7.1,0,0,1-3.375-1.307.612.612,0,0,0-.808.142l-1.117,1.972c-.19.333-.119.428.119.666" transform="translate(-18.914 -10.149)" fill="#fff"/>
    <path id="Pfad_763" data-name="Pfad 763" d="M-358.694,99.616V96.07h1.763a1.778,1.778,0,0,1,1.8,1.743,1.807,1.807,0,0,1-1.793,1.8Zm-.464,2.791a.13.13,0,0,0,.128.129h.178a.14.14,0,0,0,.158-.129V100.07h1.8a2.247,2.247,0,0,0,2.228-2.247,2.237,2.237,0,0,0-2.238-2.218h-2.129a.13.13,0,0,0-.128.129Zm-9.222-2.4a2.483,2.483,0,0,0,2.585,2.623,2.494,2.494,0,0,0,2.6-2.623V95.734a.131.131,0,0,0-.128-.129h-.2c-.1,0-.138.05-.138.129v4.239a2.056,2.056,0,0,1-2.139,2.208,2.054,2.054,0,0,1-2.121-2.218V95.734a.131.131,0,0,0-.128-.129h-.208a.13.13,0,0,0-.128.129Zm-10.251-.931a3.132,3.132,0,0,1,3.129-3.14,3.141,3.141,0,0,1,3.14,3.14,3.124,3.124,0,0,1-3.14,3.12,3.115,3.115,0,0,1-3.129-3.12m-.435,0a3.534,3.534,0,0,0,3.565,3.555,3.537,3.537,0,0,0,3.575-3.555,3.559,3.559,0,0,0-3.575-3.574,3.557,3.557,0,0,0-3.565,3.574m-7.459.367V96.06h2.08a1.71,1.71,0,0,1,1.764,1.664,1.731,1.731,0,0,1-1.753,1.724Zm-.475,2.96a.132.132,0,0,0,.129.129h.177c.1,0,.159-.059.159-.129V99.862h1.823c.128,0,.236,0,.366-.01l1.437,2.594a.14.14,0,0,0,.138.089h.306c.1,0,.119-.1.07-.178l-1.445-2.565a2.164,2.164,0,0,0,1.633-2.069,2.147,2.147,0,0,0-2.208-2.118h-2.455a.125.125,0,0,0-.129.129Zm-9.918-3.326a3.545,3.545,0,0,0,3.584,3.554,4.574,4.574,0,0,0,2.376-.633.273.273,0,0,0,.139-.258v-2.3a.129.129,0,0,0-.128-.118h-2.03c-.11,0-.129.039-.129.118v.2c0,.089.019.128.129.128h1.694v1.863a3.724,3.724,0,0,1-2.061.544,3.092,3.092,0,0,1-3.08-3.119,3.092,3.092,0,0,1,3.08-3.121,3.045,3.045,0,0,1,2.09.832c.059.059.108.069.167,0,.049-.05.109-.109.158-.169a.127.127,0,0,0-.01-.178,3.386,3.386,0,0,0-2.4-.92,3.568,3.568,0,0,0-3.584,3.575m-11.617,1.159,1.723-3.991h.019l1.693,3.991Zm-1.387,2.3h.277a.16.16,0,0,0,.139-.089l.792-1.822h3.783l.8,1.822a.16.16,0,0,0,.139.089h.257c.109,0,.109-.059.089-.119l-3.02-6.891a.127.127,0,0,0-.129-.069h-.03a.138.138,0,0,0-.119.069l-3.05,6.891c-.03.079,0,.119.069.119m-3.716-.129a.131.131,0,0,0,.129.129h.207a.133.133,0,0,0,.138-.129V95.734a.131.131,0,0,0-.129-.129h-.217a.131.131,0,0,0-.129.129Zm-8.863-.3V96.03h1.674a3,3,0,0,1,3.07,3.031,3.007,3.007,0,0,1-3.07,3.051Zm-.464.3a.129.129,0,0,0,.118.128h2.1a3.475,3.475,0,0,0,3.486-3.475,3.477,3.477,0,0,0-3.486-3.455h-2.1a.13.13,0,0,0-.118.129Zm-7.7,0a.13.13,0,0,0,.128.128h3.97a.131.131,0,0,0,.129-.128v-.158a.131.131,0,0,0-.129-.129h-3.624V99.189h3.139a.131.131,0,0,0,.129-.129v-.168a.131.131,0,0,0-.129-.129h-3.139V96.03h3.624a.131.131,0,0,0,.129-.128v-.168a.131.131,0,0,0-.129-.129h-3.97a.131.131,0,0,0-.128.129Zm-11.06,0c-.02.1.02.129.109.129h.238a.127.127,0,0,0,.119-.109l1.119-5.8h.02l2,5.931a.117.117,0,0,0,.129.079h.039a.133.133,0,0,0,.139-.079l2-5.931h.02l1.119,5.8a.126.126,0,0,0,.119.109h.238c.089,0,.129-.03.109-.129l-1.406-6.832a.1.1,0,0,0-.089-.069h-.109a.1.1,0,0,0-.1.069l-2.05,6.079h-.02l-2.04-6.079a.1.1,0,0,0-.1-.069h-.109a.1.1,0,0,0-.089.069Z" transform="translate(-43.484 -26.58)" fill="#fff"/>
    <path id="Pfad_764" data-name="Pfad 764" d="M-552.181,42.92V27.944h35.009v1.587H-550.6V42.92Z" transform="translate(0)" fill="#fff"/>
    <path id="Pfad_765" data-name="Pfad 765" d="M-550.6,99.583V112.97l33.424,0v1.587h-35.009V99.583Z" transform="translate(0 -28.204)" fill="#fff"/>
    <path id="Pfad_766" data-name="Pfad 766" d="M-216.457,42.92V33.745h-29.217v-5.8h35.011V42.92Z" transform="translate(-120.673)" fill="#f9b233"/>
    <path id="Pfad_767" data-name="Pfad 767" d="M-210.663,99.583v14.976h-35.011v-1.587l33.423,0V99.583Z" transform="translate(-120.672 -28.204)" fill="#fff"/>
  </g>
</svg>
